<?xml version="1.0" standalone="no"?>
<!DOCTYPE svg PUBLIC "-//W3C//DTD SVG 20010904//EN"
 "http://www.w3.org/TR/2001/REC-SVG-20010904/DTD/svg10.dtd">
<svg version="1.0" xmlns="http://www.w3.org/2000/svg"
 width="512.000000pt" height="512.000000pt" viewBox="0 0 512.000000 512.000000"
 preserveAspectRatio="xMidYMid meet">
<metadata>
Created by potrace 1.14, written by Peter Selinger 2001-2017
</metadata>
<g transform="translate(0.000000,512.000000) scale(0.100000,-0.100000)"
fill="#000000" stroke="none">
<path d="M245 4696 c-94 -30 -165 -93 -212 -186 l-28 -55 0 -1500 0 -1500 26
-55 c31 -66 99 -138 154 -164 87 -42 95 -42 1076 -41 l946 0 36 27 c74 57 65
172 -17 215 -28 15 -126 16 -974 17 l-944 1 -24 28 c-13 15 -24 38 -25 50 0
12 -1 491 -2 1064 l-2 1041 1910 -1 1910 -2 1 -122 c2 -158 8 -186 45 -217 73
-62 169 -40 202 45 20 49 17 1065 -2 1124 -34 100 -94 167 -191 214 l-55 26
-1895 2 c-1518 1 -1903 -1 -1935 -11z m3805 -273 l27 -30 1 -249 0 -249 -1911
0 -1911 0 1 247 c1 274 4 290 63 305 17 5 857 8 1867 7 l1836 -1 27 -30z"/>
<path d="M449 4261 c-34 -34 -39 -44 -39 -86 0 -42 5 -52 39 -86 32 -33 45
-39 79 -39 56 0 88 17 114 58 38 62 18 144 -45 179 -12 7 -42 12 -66 13 -37 0
-49 -5 -82 -39z"/>
<path d="M879 4285 c-55 -30 -76 -101 -50 -167 15 -38 67 -68 119 -68 89 0
147 99 107 183 -28 59 -115 85 -176 52z"/>
<path d="M1289 4285 c-87 -47 -80 -187 11 -225 48 -20 110 -7 142 29 53 59 49
130 -8 180 -27 24 -44 31 -77 31 -23 -1 -54 -7 -68 -15z"/>
<path d="M3530 3269 c-75 -12 -139 -65 -164 -137 -8 -23 -15 -44 -16 -47 0 -3
0 -31 0 -63 l0 -59 -42 -12 c-24 -7 -75 -28 -114 -45 l-70 -33 -57 53 c-76 71
-140 88 -232 63 -30 -9 -67 -38 -153 -123 -130 -127 -155 -167 -155 -246 -1
-66 19 -108 79 -171 l45 -46 -37 -84 c-20 -46 -42 -98 -49 -114 -12 -29 -15
-30 -83 -32 -101 -3 -162 -39 -212 -123 -16 -28 -27 -277 -16 -354 17 -111
113 -186 238 -186 57 0 70 -3 74 -17 8 -26 17 -48 54 -136 l33 -79 -42 -41
c-80 -77 -104 -172 -67 -259 17 -40 220 -249 264 -272 73 -37 184 -21 245 37
80 74 63 72 163 27 49 -22 97 -40 106 -40 25 0 30 -15 33 -89 3 -101 40 -166
120 -209 39 -22 328 -30 389 -12 108 32 153 109 155 267 1 27 6 33 39 44 20 6
72 27 114 46 l78 34 50 -49 c58 -57 107 -79 170 -77 76 3 116 28 241 154 101
104 118 125 125 163 19 101 2 154 -73 231 l-47 48 26 52 c14 29 36 80 48 115
l23 62 62 0 c103 0 166 31 213 104 26 40 27 47 30 209 3 139 1 174 -13 210
-36 92 -109 138 -221 140 l-74 1 -16 50 c-9 28 -30 80 -46 115 l-30 63 45 47
c25 25 53 62 63 81 23 46 23 134 0 182 -9 20 -70 88 -135 151 -123 120 -151
137 -234 137 -54 0 -100 -22 -160 -78 l-52 -50 -55 27 c-30 14 -81 35 -112 46
-32 10 -58 22 -59 25 0 3 -2 37 -3 75 -4 109 -51 180 -141 215 -32 13 -286 20
-345 9z m230 -334 c0 -137 23 -173 130 -200 108 -27 220 -75 306 -132 32 -21
92 -25 123 -8 14 7 51 39 81 69 30 31 60 56 65 56 6 0 31 -22 57 -48 l48 -48
-61 -63 c-95 -98 -104 -143 -49 -231 44 -69 87 -169 109 -255 36 -136 64 -157
203 -157 l88 0 1 -34 c0 -19 1 -47 1 -64 0 -16 -1 -34 -1 -40 -1 -6 -33 -10
-75 -10 -149 0 -180 -22 -215 -151 -24 -91 -58 -173 -108 -260 -30 -51 -38
-84 -34 -131 0 -10 32 -51 71 -91 l69 -73 -52 -52 -53 -52 -54 56 c-98 101
-144 108 -256 42 -72 -42 -167 -81 -253 -103 -118 -30 -141 -63 -141 -199 0
-62 -4 -86 -12 -87 -7 -1 -40 -1 -73 -2 l-60 -1 -5 100 c-7 138 -22 158 -140
188 -91 23 -162 52 -253 104 -117 66 -155 60 -257 -43 l-55 -55 -52 52 -53 52
70 72 c88 90 93 124 38 224 -58 103 -78 151 -105 243 -14 51 -33 103 -42 116
-23 36 -71 51 -166 51 l-85 0 0 74 0 73 90 1 c140 2 167 23 202 159 21 83 73
203 108 253 56 79 44 137 -46 230 l-63 66 42 40 c65 62 62 62 135 -8 82 -79
121 -91 185 -57 147 76 203 101 287 125 142 40 160 63 160 204 l0 90 75 0 75
0 0 -85z"/>
<path d="M3550 2455 c-87 -19 -215 -85 -283 -146 -99 -88 -178 -231 -202 -364
-8 -41 -7 -157 0 -202 26 -154 107 -291 236 -396 45 -37 181 -102 244 -116
313 -72 639 116 738 424 23 70 27 99 28 185 3 397 -371 699 -761 615z m240
-257 c62 -19 110 -48 156 -94 229 -233 69 -626 -256 -627 -90 -1 -157 20 -222
68 -184 135 -204 396 -44 559 95 96 237 132 366 94z"/>
</g>
</svg>
