<?xml version="1.0" encoding="UTF-8" standalone="no"?>
<svg
   xmlns:dc="http://purl.org/dc/elements/1.1/"
   xmlns:cc="http://creativecommons.org/ns#"
   xmlns:rdf="http://www.w3.org/1999/02/22-rdf-syntax-ns#"
   xmlns:svg="http://www.w3.org/2000/svg"
   xmlns="http://www.w3.org/2000/svg"
   xmlns:sodipodi="http://sodipodi.sourceforge.net/DTD/sodipodi-0.dtd"
   xmlns:inkscape="http://www.inkscape.org/namespaces/inkscape"
   inkscape:version="1.0 (4035a4fb49, 2020-05-01)"
   sodipodi:docname="playwright-logo-75.svg"
   id="svg2890"
   version="1.1"
   fill="none"
   viewBox="0 0 75 75"
   height="75"
   width="75">
  <metadata
     id="metadata2896">
    <rdf:RDF>
      <cc:Work
         rdf:about="">
        <dc:format>image/svg+xml</dc:format>
        <dc:type
           rdf:resource="http://purl.org/dc/dcmitype/StillImage" />
        <dc:title></dc:title>
      </cc:Work>
    </rdf:RDF>
  </metadata>
  <defs
     id="defs2894" />
  <sodipodi:namedview
     inkscape:current-layer="svg2890"
     inkscape:window-maximized="1"
     inkscape:window-y="-8"
     inkscape:window-x="-8"
     inkscape:cy="125.35268"
     inkscape:cx="200"
     inkscape:zoom="2.0675"
     showgrid="false"
     id="namedview2892"
     inkscape:window-height="1017"
     inkscape:window-width="1920"
     inkscape:pageshadow="2"
     inkscape:pageopacity="0"
     guidetolerance="10"
     gridtolerance="10"
     objecttolerance="10"
     borderopacity="1"
     bordercolor="#666666"
     pagecolor="#ffffff" />
  <path
     style="stroke-width:0.199308"
     id="path2876"
     fill="#2d4552"
     d="m 26.344024,41.744068 c -2.568285,0.728866 -4.253239,2.00683 -5.36318,3.283796 1.063105,-0.930369 2.487166,-1.784202 4.408095,-2.328711 1.964778,-0.556871 3.64096,-0.552885 5.02595,-0.28561 v -1.08304 c -1.181497,-0.108025 -2.535996,-0.02193 -4.070865,0.413565 z m -5.480575,-9.104395 -9.538188,2.512876 c 0,0 0.173837,0.245546 0.495722,0.573211 l 8.087183,-2.131006 c 0,0 -0.114604,1.47668 -1.109807,2.79769 1.882526,-1.424258 2.06509,-3.752771 2.06509,-3.752771 z m 7.984082,22.416374 C 15.424772,58.671298 8.3232261,43.115702 6.173167,35.041733 5.1798159,31.314873 4.7461827,28.492273 4.6306031,26.670797 c -0.012427,-0.189143 -0.00666,-0.348592 0.00667,-0.494684 -0.6963029,0.04205 -1.0296645,0.403997 -0.9618406,1.449965 0.1155796,1.820481 0.5492128,4.642883 1.5425639,8.370938 2.1491002,8.072774 9.2516056,23.628369 22.6744246,20.013124 2.921655,-0.787071 5.116636,-2.220691 6.764318,-4.050744 -1.51873,1.371643 -3.419531,2.451894 -5.809233,3.096651 z m 2.522443,-31.936523 v 0.955283 h 5.264923 c -0.108024,-0.338225 -0.216849,-0.642966 -0.324873,-0.955283 z" />
  <path
     style="stroke-width:0.199308"
     id="path2878"
     fill="#2d4552"
     d="m 37.811613,30.987011 c 2.367777,0.672464 3.62003,2.3325 4.281934,3.801603 l 2.64003,0.749795 c 0,0 -0.360151,-5.141548 -5.0108,-6.462561 -4.350696,-1.236109 -7.028003,2.417406 -7.353672,2.890166 1.265605,-0.901666 3.113787,-1.639908 5.442508,-0.979003 z m 21.01524,3.825317 c -4.354678,-1.241688 -7.030993,2.419404 -7.351874,2.885588 1.266598,-0.900677 3.113791,-1.639113 5.441511,-0.975213 2.363993,0.673456 3.615245,2.331501 4.27914,3.801597 l 2.643826,0.75259 c 0,0 -0.36593,-5.142549 -5.012603,-6.464562 z M 56.20396,48.368869 34.242201,42.229181 c 0,0 0.237772,1.205418 1.150009,2.766197 l 18.490809,5.169249 c 1.522315,-0.880738 2.320941,-1.795758 2.320941,-1.795758 z M 40.977817,61.584384 C 23.588388,56.92217 25.690692,34.76569 28.504521,24.266544 c 1.158578,-4.326784 2.349643,-7.542756 3.337417,-9.698529 -0.589358,-0.12132 -1.077463,0.189122 -1.559789,1.170055 -1.048757,2.127097 -2.3899,5.590469 -3.687795,10.438839 -2.813034,10.498952 -4.915337,32.654637 12.473297,37.316846 8.196146,2.195775 14.581185,-1.141432 19.340858,-6.382442 -4.517917,4.091995 -10.286094,6.386226 -17.430692,4.473071 z" />
  <path
     style="stroke-width:0.199308"
     id="path2880"
     fill="#e2574c"
     d="m 31.369974,49.863872 v -4.471076 l -12.422591,3.52257 c 0,0 0.917929,-5.33348 7.396641,-7.171298 1.964778,-0.556867 3.641158,-0.553083 5.02595,-0.285611 V 23.119524 h 6.220009 c -0.67725,-2.092732 -1.332376,-3.703941 -1.882669,-4.823455 -0.910237,-1.852964 -1.843401,-0.62463 -3.961847,1.147218 -1.492016,1.246471 -5.262926,3.905642 -10.937428,5.434734 -5.674578,1.530086 -10.262173,1.124295 -12.1762881,0.792847 -2.7135952,-0.468176 -4.132947,-1.064108 -4.0001717,0.999929 0.1155624,1.820478 0.5492128,4.643079 1.5425682,8.370936 2.1490787,8.072972 9.2515796,23.628568 22.6743816,20.013321 3.506227,-0.944724 5.981034,-2.812036 7.696476,-5.192175 h -5.175031 z m -20.04565,-14.711323 9.539125,-2.512876 c 0,0 -0.278033,3.669661 -3.854079,4.612389 -3.577045,0.94173 -5.685046,-2.099513 -5.685046,-2.099513 z" />
  <path
     style="stroke-width:0.199308"
     id="path2882"
     fill="#2ead33"
     d="m 67.270347,23.331591 c -2.4796,0.434692 -8.428343,0.976207 -15.780019,-0.994353 -7.353677,-1.969361 -12.232737,-5.413723 -14.165827,-7.032703 -2.740287,-2.295231 -3.9457,-3.890334 -5.131984,-1.477608 -1.048757,2.128069 -2.3899,5.591446 -3.687996,10.439815 -2.812837,10.498948 -4.915135,32.654633 12.473296,37.316842 17.384848,4.658238 26.64012,-15.581504 29.453147,-26.081446 1.298093,-4.847374 1.867317,-8.518029 2.023976,-10.884813 0.178579,-2.681093 -1.663034,-1.902796 -5.184593,-1.285734 z m -34.936519,8.686241 c 0,0 2.740285,-4.262003 7.387952,-2.940992 4.650655,1.321016 5.0108,6.462567 5.0108,6.462567 z m 11.345209,19.124999 c -8.175019,-2.394677 -9.435838,-8.91365 -9.435838,-8.91365 l 21.960761,6.139886 c 0,-8.6e-4 -4.432817,5.138561 -12.524923,2.773764 z m 7.764446,-13.397082 c 0,0 2.736499,-4.259015 7.38337,-2.934216 4.646673,1.323006 5.012603,6.464557 5.012603,6.464557 z" />
  <path
     style="stroke-width:0.199308"
     id="path2884"
     fill="#d65348"
     d="m 27.028848,46.623925 -8.081465,2.290448 c 0,0 0.87787,-5.001038 6.831204,-6.982959 L 21.20247,24.757836 20.807047,24.878021 c -5.674541,1.530287 -10.262136,1.124295 -12.1762507,0.792847 -2.713578,-0.467973 -4.1329298,-1.064108 -4.0001717,1.000127 0.1155796,1.820478 0.5492128,4.642881 1.5425639,8.370936 2.1491002,8.072774 9.2516015,23.62837 22.6743425,20.013123 l 0.395428,-0.124172 z M 11.324324,35.152747 20.863449,32.639673 c 0,0 -0.278033,3.669661 -3.854079,4.612389 -3.577023,0.94173 -5.685046,-2.099315 -5.685046,-2.099315 z" />
  <path
     style="stroke-width:0.199308"
     id="path2886"
     fill="#1d8d22"
     d="m 44.047759,51.232524 -0.369714,-0.08988 C 35.503021,48.748161 34.242201,42.229186 34.242201,42.229186 L 45.566487,45.3946 51.561874,22.35638 51.489319,22.33724 C 44.135654,20.367877 39.256791,16.923519 37.323503,15.304535 34.583216,13.009304 33.377803,11.414201 32.191519,13.826927 31.14376,15.955 29.802617,19.418373 28.504521,24.266747 25.691684,34.76569 23.589386,56.921375 40.977817,61.583393 l 0.356363,0.08031 z M 32.333828,32.017832 c 0,0 2.740285,-4.262003 7.387952,-2.940992 4.650655,1.321016 5.0108,6.462567 5.0108,6.462567 z" />
  <path
     style="stroke-width:0.199308"
     id="path2888"
     fill="#c04b41"
     d="m 27.44062,46.506531 -2.167282,0.615068 c 0.512022,2.886375 1.414494,5.65636 2.830973,8.103462 0.246545,-0.05442 0.491095,-0.101243 0.742227,-0.170007 0.658115,-0.177584 1.268396,-0.397426 1.855952,-0.637188 -1.582704,-2.348648 -2.629672,-5.053658 -3.26187,-7.911335 z m -0.846266,-20.32942 c -1.113735,4.156764 -2.110074,10.139795 -1.835825,16.140959 0.490893,-0.213056 1.009489,-0.411566 1.585495,-0.575 l 0.401204,-0.08969 c -0.4891,-6.41015 0.568227,-12.942272 1.759293,-17.386643 0.301954,-1.124294 0.604699,-2.170068 0.906456,-3.145282 -0.486115,0.309325 -1.009497,0.626424 -1.605631,0.95309 -0.402004,1.240895 -0.807991,2.597187 -1.210992,4.102561 z" />
</svg>
