<?xml version="1.0" encoding="UTF-8" standalone="no"?>
<svg
   xmlns:dc="http://purl.org/dc/elements/1.1/"
   xmlns:cc="http://creativecommons.org/ns#"
   xmlns:rdf="http://www.w3.org/1999/02/22-rdf-syntax-ns#"
   xmlns:svg="http://www.w3.org/2000/svg"
   xmlns="http://www.w3.org/2000/svg"
   xmlns:sodipodi="http://sodipodi.sourceforge.net/DTD/sodipodi-0.dtd"
   xmlns:inkscape="http://www.inkscape.org/namespaces/inkscape"
   inkscape:version="1.0 (4035a4fb49, 2020-05-01)"
   sodipodi:docname="playwright-logo.svg"
   id="svg2890"
   version="1.1"
   fill="none"
   viewBox="0 0 150 150"
   height="150"
   width="150">
  <metadata
     id="metadata2896">
    <rdf:RDF>
      <cc:Work
         rdf:about="">
        <dc:format>image/svg+xml</dc:format>
        <dc:type
           rdf:resource="http://purl.org/dc/dcmitype/StillImage" />
        <dc:title></dc:title>
      </cc:Work>
    </rdf:RDF>
  </metadata>
  <defs
     id="defs2894" />
  <sodipodi:namedview
     inkscape:current-layer="svg2890"
     inkscape:window-maximized="1"
     inkscape:window-y="-8"
     inkscape:window-x="-8"
     inkscape:cy="125.35268"
     inkscape:cx="200"
     inkscape:zoom="2.0675"
     showgrid="false"
     id="namedview2892"
     inkscape:window-height="1017"
     inkscape:window-width="1920"
     inkscape:pageshadow="2"
     inkscape:pageopacity="0"
     guidetolerance="10"
     gridtolerance="10"
     objecttolerance="10"
     borderopacity="1"
     bordercolor="#666666"
     pagecolor="#ffffff" />
  <path
     style="stroke-width:0.393981"
     id="path2876"
     fill="#2d4552"
     d="m 51.169524,82.25174 c -5.076846,1.440784 -8.407571,3.966993 -10.601643,6.491229 2.10149,-1.839102 4.916495,-3.526913 8.713683,-4.603268 3.883864,-1.100793 7.197249,-1.092913 9.935022,-0.564579 v -2.140896 c -2.335519,-0.213537 -5.013019,-0.04335 -8.047062,0.817514 z M 40.335823,64.254671 21.481256,69.221986 c 0,0 0.34363,0.485384 0.979915,1.133092 l 15.9863,-4.212455 c 0,0 -0.226542,2.919019 -2.193807,5.53032 3.721274,-2.815395 4.082159,-7.418272 4.082159,-7.418272 z M 56.118319,108.56613 C 29.584945,115.71256 15.546998,84.963113 11.296878,69.002932 9.3332758,61.635879 8.4760939,56.056317 8.2476218,52.455725 c -0.024571,-0.37389 -0.013181,-0.689078 0.01326,-0.977866 -1.3764129,0.08313 -2.0353839,0.798601 -1.901314,2.86621 0.2284721,3.598628 1.085654,9.1778 3.049256,16.547215 4.2482242,15.957817 18.2880672,46.707266 44.8215602,39.560846 5.775368,-1.55584 10.114287,-4.38974 13.371334,-8.00729 -3.00214,2.71139 -6.759541,4.84677 -11.483373,6.12129 z m 4.986229,-63.130368 v 1.888351 h 10.40741 c -0.213537,-0.668584 -0.428655,-1.270979 -0.642192,-1.888351 z" />
  <path
     style="stroke-width:0.393981"
     id="path2878"
     fill="#2d4552"
     d="m 73.838025,60.987779 c 4.680491,1.32929 7.155879,4.610759 8.464293,7.514801 l 5.218668,1.482153 c 0,0 -0.711926,-10.163528 -9.905076,-12.774838 -8.600217,-2.44347 -13.892572,4.778598 -14.536336,5.713123 2.501779,-1.782366 6.155164,-3.24168 10.758451,-1.935239 z m 41.541775,7.561678 c -8.60809,-2.454502 -13.89848,4.782543 -14.53278,5.704071 2.50374,-1.78041 6.15517,-3.240108 10.75648,-1.927749 4.67301,1.331253 7.14642,4.608785 8.45877,7.51479 l 5.22617,1.487679 c 0,0 -0.72335,-10.165508 -9.90864,-12.778791 z M 110.19501,95.347283 66.782208,83.210685 c 0,0 0.470016,2.382805 2.273274,5.468067 L 105.6071,98.897039 c 3.00923,-1.740993 4.58791,-3.549756 4.58791,-3.549756 z M 80.096805,121.47099 C 45.722333,112.25498 49.878051,68.457266 55.440274,47.703128 c 2.290215,-8.552949 4.644647,-14.910107 6.597225,-19.171523 -1.16501,-0.239819 -2.129871,0.373847 -3.083308,2.312901 -2.073124,4.20473 -4.724223,11.050935 -7.289829,20.634926 -5.560651,20.753755 -9.716369,64.549898 24.65653,73.765898 16.201692,4.34049 28.823288,-2.25632 38.231948,-12.61646 -8.93077,8.08883 -20.332985,12.62394 -34.456035,8.84212 z" />
  <path
     style="stroke-width:0.393981"
     id="path2880"
     fill="#e2574c"
     d="m 61.104548,98.302526 v -8.838179 l -24.5563,6.963223 c 0,0 1.814512,-10.54293 14.621276,-14.17583 3.883864,-1.100785 7.19764,-1.093305 9.935024,-0.56458 V 45.435762 h 12.29537 c -1.33875,-4.1368 -2.633767,-7.32175 -3.721556,-9.534741 -1.799306,-3.662838 -3.643933,-1.234735 -7.83156,2.267758 -2.94934,2.463953 -10.403466,7.720458 -21.62051,10.743083 -11.217197,3.024589 -20.285703,2.222444 -24.069419,1.567256 -5.364087,-0.925463 -8.1697841,-2.10347 -7.9073211,1.976607 0.2284369,3.59862 1.085654,9.178182 3.0492641,16.547207 4.248182,15.958209 18.288016,46.707658 44.821475,39.561238 6.930918,-1.86748 11.822983,-5.55868 15.213974,-10.263608 H 61.104548 Z m -39.625145,-29.08054 18.85642,-4.967315 c 0,0 -0.549602,7.253984 -7.618533,9.117517 -7.070905,1.86156 -11.237887,-4.150202 -11.237887,-4.150202 z" />
  <path
     style="stroke-width:0.393981"
     id="path2882"
     fill="#2ead33"
     d="M 132.07043,45.854965 C 127.1689,46.714238 115.40975,47.784677 100.87736,43.889382 86.341016,39.996456 76.696354,33.187829 72.875128,29.987519 67.458281,25.450432 65.075484,22.297322 62.730504,27.066664 c -2.073125,4.20665 -4.724224,11.052866 -7.29023,20.636855 -5.560259,20.753747 -9.715969,64.549891 24.656531,73.765891 34.365415,9.20814 52.660725,-30.800664 58.221375,-51.556374 2.566,-9.582026 3.69121,-16.837975 4.00088,-21.516503 0.35301,-5.299838 -3.28739,-3.761344 -10.24863,-2.541568 z M 63.00984,63.025452 c 0,0 5.416846,-8.424896 14.604098,-5.813594 9.193159,2.611311 9.905076,12.774847 9.905076,12.774847 z M 85.436429,100.8307 C 69.276499,96.097034 66.78418,83.210685 66.78418,83.210685 l 43.41083,12.136989 c 0,-0.0017 -8.76255,10.157626 -24.758581,5.483026 z M 100.78476,74.348082 c 0,0 5.40936,-8.418988 14.59504,-5.800197 9.18529,2.615246 9.90864,12.778782 9.90864,12.778782 z" />
  <path
     style="stroke-width:0.393981"
     id="path2884"
     fill="#d65348"
     d="m 52.523244,91.897975 -15.974996,4.527632 c 0,0 1.735326,-9.885778 13.503552,-13.80353 l -9.04582,-33.94779 -0.781652,0.237575 c -11.21712,3.024989 -20.285626,2.222444 -24.069342,1.567256 -5.364053,-0.925064 -8.1697501,-2.10347 -7.9073211,1.976998 0.2284709,3.59862 1.085654,9.177791 3.0492561,16.547207 4.248224,15.957818 18.288058,46.707267 44.821398,39.560847 l 0.78166,-0.24546 z M 21.479403,69.222377 40.335823,64.254671 c 0,0 -0.549602,7.253984 -7.618533,9.117517 -7.070863,1.86156 -11.237887,-4.149811 -11.237887,-4.149811 z" />
  <path
     style="stroke-width:0.393981"
     id="path2886"
     fill="#1d8d22"
     d="m 86.165296,101.008 -0.73083,-0.17768 C 69.274527,96.097034 66.782208,83.210685 66.782208,83.210685 L 89.167436,89.4679 101.01879,43.927207 100.87538,43.889391 C 86.339044,39.996456 76.694773,33.187837 72.873156,29.987519 67.456309,25.450432 65.073512,22.297322 62.728532,27.066664 60.657379,31.273323 58.00628,38.11953 55.440274,47.703528 49.880015,68.457266 45.724305,112.25341 80.096805,121.46903 l 0.704438,0.15876 z M 63.00984,63.025452 c 0,0 5.416846,-8.424896 14.604098,-5.813594 9.193159,2.611311 9.905076,12.774847 9.905076,12.774847 z" />
  <path
     style="stroke-width:0.393981"
     id="path2888"
     fill="#c04b41"
     d="m 53.337213,91.665916 -4.284163,1.215832 c 1.012137,5.70563 2.796093,11.181182 5.596112,16.018482 0.487356,-0.10756 0.970768,-0.20014 1.467194,-0.33606 1.300925,-0.35104 2.507296,-0.78561 3.668744,-1.25956 -3.128603,-4.64268 -5.198192,-9.989793 -6.447887,-15.638694 z M 51.664362,51.479831 c -2.20157,8.216866 -4.171079,20.043793 -3.628958,31.906566 0.970369,-0.421158 1.995503,-0.813561 3.13412,-1.136629 l 0.793077,-0.177284 c -0.966825,-12.671233 1.123241,-25.583576 3.477673,-34.368965 0.596887,-2.222444 1.195338,-4.289672 1.791834,-6.217421 -0.960925,0.611456 -1.995519,1.23828 -3.173925,1.884018 -0.794657,2.452931 -1.597193,5.133976 -2.393821,8.109715 z" />
</svg>
